# xmcd
#
# Track frame offsets: 
#        150
#        13638
#        26043
#        40338
#        53709
#        67302
#        77721
#        90951
#        104687
#        117759
#        130864
#        143736
#
# Disc length: 2064 seconds
#
# Revision: 0
# Processed by: cddbd v1.5.2PL0 Copyright (c) Steve Scherf et al.
# Submitted via: ExactAudioCopy v1.0b3
#
DISCID=9f080e0c
DTITLE=Howlin' Wolf - Moanin' In The Moonlight [Digital Remasted]
DYEAR=2013
DGENRE=Blues
TTITLE0=Moanin' At Midnight
TTITLE1=How Many More Years
TTITLE2=Smokestack Lightnin'
TTITLE3=Baby How Long
TTITLE4=No Place To Go
TTITLE5=All Night Boogie
TTITLE6=Evil
TTITLE7=I'm Leavin' You
TTITLE8=Moanin' For My Baby
TTITLE9=I Asked For Water (She Gave Me Gasoline)
TTITLE10=Forty-Four
TTITLE11=Somebody In My Home
EXTD=
EXTT0=
EXTT1=
EXTT2=
EXTT3=
EXTT4=
EXTT5=
EXTT6=
EXTT7=
EXTT8=
EXTT9=
EXTT10=
EXTT11=
PLAYORDER=
